<svg width="192" height="216" viewBox="0 0 192 216" fill="none" xmlns="http://www.w3.org/2000/svg">
<path d="M165.461 1.5H33.0612C27.8612 1.5 23.5612 5.8 23.5612 11V192.2C23.5612 197.4 27.8612 201.7 33.0612 201.7H165.461C170.661 201.7 174.961 197.4 174.961 192.2V11C174.961 5.8 170.661 1.5 165.461 1.5Z" fill="#56B4AC"/>
<path d="M25.8611 0H162.261C166.461 0 169.761 3.4 169.761 7.5V188.6C169.761 192.8 166.361 196.1 162.261 196.1H25.8611C21.6611 196.1 18.3611 192.7 18.3611 188.6V7.5C18.3611 3.4 21.7611 0 25.8611 0Z" fill="#FFF7DF"/>
<mask id="mask0_2073_2650" style="mask-type:luminance" maskUnits="userSpaceOnUse" x="18" y="0" width="152" height="197">
<path d="M25.8611 0H162.261C166.461 0 169.761 3.4 169.761 7.5V188.6C169.761 192.8 166.361 196.1 162.261 196.1H25.8611C21.6611 196.1 18.3611 192.7 18.3611 188.6V7.5C18.3611 3.4 21.7611 0 25.8611 0Z" fill="white"/>
</mask>
<g mask="url(#mask0_2073_2650)">
<g opacity="0.3">
<path d="M135.661 -13.5C135.661 -13.5 187.761 -4.90001 200.461 26.9C213.661 60.1 264.961 69.6 264.961 69.6" stroke="#1AB7AC" stroke-width="1.5" stroke-miterlimit="10"/>
<path d="M106.561 -13.5C106.561 -13.5 170.461 -3.69999 185.861 34.6C202.061 74.7 264.961 85.7 264.961 85.7" stroke="#1AB7AC" stroke-width="1.5" stroke-miterlimit="10"/>
<path d="M77.3611 -13.5C77.3611 -13.5 152.961 -2.60001 171.261 42.3C190.461 89.2 264.861 101.7 264.861 101.7" stroke="#FFC728" stroke-width="1.5" stroke-miterlimit="10"/>
<path d="M48.2611 -13.5C48.2611 -13.5 135.661 -1.40001 156.761 49.9C178.861 103.7 264.961 117.6 264.961 117.6" stroke="#4943C2" stroke-width="1.5" stroke-miterlimit="10"/>
<path d="M19.1611 -13.5C19.1611 -13.5 118.261 -0.199993 142.161 57.6C167.261 118.2 264.961 133.6 264.961 133.6" stroke="#1AB7AC" stroke-width="1.5" stroke-miterlimit="10"/>
<path d="M-10.0389 -13.5C-10.0389 -13.5 100.761 0.999985 127.561 65.3C155.661 132.8 264.961 149.6 264.961 149.6" stroke="#FFC728" stroke-width="1.5" stroke-miterlimit="10"/>
<path d="M-39.2389 -13.5C-39.2389 -13.5 83.3611 2.2 112.861 72.9C143.961 147.2 264.861 165.5 264.861 165.5" stroke="#4943C2" stroke-width="1.5" stroke-miterlimit="10"/>
<path d="M-68.3389 -13.5C-68.3389 -13.5 65.9611 3.40001 98.3611 80.6C132.361 161.8 264.961 181.6 264.961 181.6" stroke="#1AB7AC" stroke-width="1.5" stroke-miterlimit="10"/>
<path d="M-97.439 -13.5C-97.439 -13.5 48.661 4.49998 83.761 88.3C120.761 176.3 264.961 197.6 264.961 197.6" stroke="#FFC728" stroke-width="1.5" stroke-miterlimit="10"/>
<path d="M-126.639 -13.5C-126.639 -13.5 31.1611 5.7 69.2611 96C109.161 190.8 264.961 213.5 264.961 213.5" stroke="#4943C2" stroke-width="1.5" stroke-miterlimit="10"/>
<path d="M-155.739 -13.5C-155.739 -13.5 13.8611 6.90001 54.6611 103.6C97.5611 205.3 264.961 229.5 264.961 229.5" stroke="#1AB7AC" stroke-width="1.5" stroke-miterlimit="10"/>
<path d="M-184.939 -13.5C-184.939 -13.5 -3.63898 8.09999 40.061 111.3C85.961 219.8 264.961 245.5 264.961 245.5" stroke="#FFC728" stroke-width="1.5" stroke-miterlimit="10"/>
<path d="M-214.139 -13.5C-214.139 -13.5 -21.0389 9.3 25.4611 118.9C74.3611 234.3 264.961 261.5 264.961 261.5" stroke="#4943C2" stroke-width="1.5" stroke-miterlimit="10"/>
<path d="M-243.239 -13.5C-243.239 -13.5 -38.4389 10.5 10.8611 126.7C62.6611 248.8 264.961 277.5 264.961 277.5" stroke="#1AB7AC" stroke-width="1.5" stroke-miterlimit="10"/>
<path d="M-272.339 -13.5C-272.339 -13.5 -55.7389 11.6 -3.63885 134.3C51.1611 263.3 264.961 293.5 264.961 293.5" stroke="#FFC728" stroke-width="1.5" stroke-miterlimit="10"/>
<path d="M-301.539 -13.5C-301.539 -13.5 -73.2389 12.8 -18.3389 142C39.4611 277.8 264.961 309.5 264.961 309.5" stroke="#4943C2" stroke-width="1.5" stroke-miterlimit="10"/>
<path d="M-330.639 -13.5C-330.639 -13.5 -90.5389 14 -32.8389 149.6C27.8611 292.4 264.961 325.5 264.961 325.5" stroke="#1AB7AC" stroke-width="1.5" stroke-miterlimit="10"/>
<path d="M-359.839 -13.5C-359.839 -13.5 -108.039 15.2 -47.5389 157.3C16.2611 306.8 264.961 341.4 264.961 341.4" stroke="#1AB7AC" stroke-width="1.5" stroke-miterlimit="10"/>
</g>
</g>
<path d="M143.861 37.5H44.3612C42.8612 37.5 41.5612 36.3 41.5612 34.7C41.5612 33.2 42.7612 31.9 44.3612 31.9H143.861C145.361 31.9 146.661 33.1 146.661 34.7C146.561 36.2 145.361 37.5 143.861 37.5Z" fill="#F6C94F"/>
<path d="M143.861 52.3H44.3612C42.8612 52.3 41.5612 51.1001 41.5612 49.5001C41.5612 48.0001 42.7612 46.7001 44.3612 46.7001H143.861C145.361 46.7001 146.661 47.9001 146.661 49.5001C146.561 51.1001 145.361 52.3 143.861 52.3Z" fill="#4843BB"/>
<path d="M143.861 67.1H44.3612C42.8612 67.1 41.5612 65.9 41.5612 64.3C41.5612 62.8 42.7612 61.5 44.3612 61.5H143.861C145.361 61.5 146.661 62.7 146.661 64.3C146.561 65.9 145.361 67.1 143.861 67.1Z" fill="#56B4AC"/>
<path d="M143.861 82H44.3612C42.8612 82 41.5612 80.8 41.5612 79.2C41.5612 77.7 42.7612 76.4 44.3612 76.4H143.861C145.361 76.4 146.661 77.6 146.661 79.2C146.561 80.8 145.361 82 143.861 82Z" fill="#F6C94F"/>
<path d="M143.861 96.8H44.3612C42.8612 96.8 41.5612 95.6001 41.5612 94.0001C41.5612 92.5001 42.7612 91.2001 44.3612 91.2001H143.861C145.361 91.2001 146.661 92.4001 146.661 94.0001C146.561 95.6001 145.361 96.8 143.861 96.8Z" fill="#4843BB"/>
<path d="M143.861 111.7H44.3612C42.8612 111.7 41.5612 110.5 41.5612 108.9C41.5612 107.4 42.7612 106.1 44.3612 106.1H143.861C145.361 106.1 146.661 107.3 146.661 108.9C146.561 110.4 145.361 111.7 143.861 111.7Z" fill="#56B4AC"/>
<path d="M143.861 126.5H44.3612C42.8612 126.5 41.5612 125.3 41.5612 123.7C41.5612 122.2 42.7612 120.9 44.3612 120.9H143.861C145.361 120.9 146.661 122.1 146.661 123.7C146.561 125.3 145.361 126.5 143.861 126.5Z" fill="#4843BB"/>
<path d="M143.861 141.4H44.3612C42.8612 141.4 41.5612 140.2 41.5612 138.6C41.5612 137.1 42.7612 135.8 44.3612 135.8H143.861C145.361 135.8 146.661 137 146.661 138.6C146.561 140.1 145.361 141.4 143.861 141.4Z" fill="#F6C94F"/>
<path d="M143.861 156.2H44.3612C42.8612 156.2 41.5612 155 41.5612 153.4C41.5612 151.9 42.7612 150.6 44.3612 150.6H143.861C145.361 150.6 146.661 151.8 146.661 153.4C146.561 155 145.361 156.2 143.861 156.2Z" fill="#4843BB"/>
<path d="M181.161 215.6H128.961C123.661 215.6 119.361 211.3 119.361 206V156.3C119.361 151.9 122.961 148.3 127.361 148.3H181.261C186.861 148.3 191.361 152.8 191.361 158.4V205.4C191.361 211 186.761 215.6 181.161 215.6Z" fill="white"/>
<path d="M119.361 167.8C143.461 167.8 167.361 167.8 191.461 167.8C191.461 168.2 191.461 168.5 191.461 168.9C191.461 181.9 191.461 194.9 191.461 208C191.461 212.3 188.361 215.5 184.061 215.7C183.761 215.7 183.461 215.7 183.161 215.7C164.161 215.7 145.261 215.6 126.261 215.7C121.461 215.7 119.361 212.5 119.361 208.8C119.361 197.8 119.361 186.8 119.361 175.8C119.361 173.1 119.361 170.5 119.361 167.8ZM172.361 176.1C171.461 176.1 170.561 176.1 169.661 176.1C168.461 176.1 167.761 176.8 167.761 177.9C167.761 179.7 167.761 181.6 167.761 183.4C167.761 184.5 168.461 185.2 169.561 185.2C171.461 185.2 173.361 185.2 175.261 185.2C176.461 185.2 176.961 184.5 176.961 183.4C176.961 181.6 176.961 179.7 176.961 177.9C176.961 176.7 176.261 176.1 175.061 176C174.261 176.1 173.361 176.1 172.361 176.1ZM154.461 205.5C155.361 205.5 156.261 205.5 157.161 205.5C158.361 205.5 158.961 204.9 159.061 203.7C159.061 201.9 159.061 200 159.061 198.2C159.061 197 158.361 196.3 157.161 196.3C155.361 196.3 153.461 196.3 151.661 196.3C150.461 196.3 149.861 197 149.861 198.2C149.861 200 149.861 201.8 149.861 203.6C149.861 204.8 150.561 205.5 151.861 205.5C152.761 205.5 153.661 205.5 154.461 205.5ZM177.061 201C177.061 200.1 177.061 199.1 177.061 198.2C177.061 197.1 176.461 196.4 175.361 196.3C173.461 196.2 171.561 196.3 169.661 196.3C168.661 196.3 167.961 197 167.961 198C167.861 199.9 167.861 201.9 167.961 203.8C167.961 204.8 168.761 205.5 169.761 205.5C171.661 205.5 173.561 205.5 175.461 205.5C176.561 205.5 177.161 204.9 177.161 203.8C177.061 202.8 177.061 201.9 177.061 201ZM154.461 176.1C153.561 176.1 152.661 176.1 151.661 176.1C150.461 176.1 149.861 176.8 149.761 178C149.761 179.8 149.761 181.6 149.761 183.4C149.761 184.5 150.361 185.2 151.461 185.3C153.461 185.4 155.361 185.4 157.361 185.3C158.361 185.3 158.961 184.7 158.961 183.7C159.061 181.7 159.061 179.8 158.961 177.8C158.961 176.7 158.161 176.1 157.161 176.1C156.361 176.1 155.361 176.1 154.461 176.1ZM136.661 205.5C137.461 205.5 138.261 205.5 139.161 205.5H139.261C140.461 205.5 141.261 204.8 141.261 203.6C141.361 201.8 141.261 199.9 141.261 198.1C141.261 197 140.561 196.4 139.461 196.3C137.561 196.3 135.761 196.3 133.861 196.3C132.761 196.3 132.061 197 132.061 198.2C132.061 200 132.061 201.8 132.061 203.6C132.061 204.8 132.761 205.4 133.961 205.5C134.861 205.5 135.761 205.5 136.661 205.5ZM136.761 176.1C135.861 176.1 134.961 176.1 133.961 176.1C132.761 176.1 132.061 176.8 132.061 177.9C132.061 179.7 132.061 181.5 132.061 183.3C132.061 184.4 132.661 185.2 133.861 185.2C135.661 185.3 137.561 185.3 139.361 185.2C140.461 185.2 141.261 184.5 141.261 183.4C141.361 181.5 141.361 179.6 141.261 177.7C141.261 176.7 140.461 176.1 139.461 176.1C138.561 176.1 137.661 176.1 136.761 176.1Z" fill="#4843BB"/>
<path d="M131.861 148.3C131.861 149.3 131.861 150.3 131.861 151.3C131.861 152.5 131.861 153.7 131.861 155C131.861 156.4 132.861 157.4 134.161 157.3C135.461 157.3 136.361 156.3 136.361 155C136.361 153.1 136.361 151.2 136.361 149.3C136.361 149 136.361 148.7 136.361 148.4C148.361 148.4 160.261 148.4 172.261 148.4C172.261 148.7 172.261 148.9 172.261 149.2C172.261 151.1 172.261 153.1 172.261 155C172.261 156.1 172.961 157 173.861 157.2C174.761 157.4 175.761 157.1 176.261 156.3C176.561 155.8 176.661 155.2 176.661 154.7C176.661 152.6 176.661 150.5 176.661 148.5C176.761 148.4 176.761 148.4 176.861 148.4C179.461 148.4 182.061 148.3 184.661 148.5C187.761 148.8 190.561 151.4 191.161 154.2C191.161 154.3 191.261 154.5 191.261 154.6C191.261 157.3 191.261 160 191.261 162.7V163.1C167.361 163.1 143.261 163.1 119.261 163.1C119.261 162.9 119.261 162.8 119.261 162.6C119.261 160.1 119.261 157.5 119.261 155C119.261 153.5 119.661 152.1 120.461 150.8C121.461 149.3 122.861 148.4 124.661 148.3C127.061 148.2 129.461 148.3 131.861 148.3Z" fill="#56B4AC"/>
<path d="M34.6611 60.4C35.2611 61.9 35.5611 63.4 35.7611 64.9C35.7611 65.1 35.6611 65.2 35.8611 65.4C35.8611 66.4 35.8611 67.3 35.8611 68.3L35.7611 68.4C35.7611 69 35.6611 69.5 35.5611 70.1C34.6611 74.9 32.2611 78.6 28.3611 81.5C26.0611 83.2 23.5611 84.2 20.7611 84.6C20.3611 84.7 19.8611 84.7 19.4611 84.8C19.1611 84.8 18.7611 84.8 18.4611 84.8C18.3611 84.7 18.2611 84.7 18.0611 84.7C17.5611 84.7 16.9611 84.6 16.4611 84.5C14.8611 84.2 13.3611 83.8 11.8611 83.1C11.8611 83 12.0611 82.9 12.1611 82.8C12.9611 82 13.7611 81.2 14.5611 80.4C14.6611 80.4 14.6611 80.4 14.7611 80.4C15.6611 80.6 16.6611 80.7 17.5611 80.8C18.5611 80.9 19.5611 80.8 20.5611 80.6C23.9611 79.9 26.7611 78.2 28.8611 75.5C30.6611 73.2 31.6611 70.6 31.7611 67.8C31.8611 66.4 31.6611 65 31.3611 63.6C31.4611 63.5 31.5611 63.4 31.6611 63.3C32.5611 62.4 33.3611 61.6 34.2611 60.7C34.4611 60.6 34.5611 60.4 34.6611 60.4Z" fill="#FEDD50"/>
<path d="M11.9612 83.2C13.4612 83.9 14.9612 84.2999 16.5612 84.5999C17.0612 84.6999 17.6612 84.7999 18.1612 84.7999C18.2612 84.7999 18.4612 84.7999 18.5612 84.8999C17.9612 84.8999 17.2612 84.8999 16.6612 84.8999C16.2612 84.6999 15.7612 84.8 15.2612 84.7C13.9612 84.5 12.6612 84.2 11.4612 83.7C11.6612 83.4 11.7612 83.2 11.9612 83.2Z" fill="#FEBC00"/>
<path d="M17.2611 49.1C18.3611 49 19.4611 49.1 20.5611 49.2C22.6611 49.5 24.5611 50.1 26.4611 51.1C26.6611 51.2 26.8611 51.3 27.0611 51.5C26.9611 51.6 26.8611 51.7 26.7611 51.8C25.8611 52.7 25.0611 53.5 24.1611 54.4C24.0611 54.4 24.0611 54.4 23.9611 54.3C21.8611 53.3 19.7611 52.9 17.4611 53C16.7611 53 16.0611 53.1 15.4611 53.2C11.7611 54 8.76108 55.9 6.56108 59C5.16108 61 4.36109 63.2 4.16109 65.6C4.06109 67.1 4.16111 68.6 4.46111 70.1C4.66111 71.1 5.06111 72.1 5.46111 73.1C4.96111 73.6 4.4611 74.1 3.8611 74.6C3.6611 74.8 3.5611 75 3.3611 75C2.8611 74.1 2.5611 73.2 2.2611 72.3C1.8611 70.9 1.56111 69.5 1.46111 68C1.36111 66.7 1.46109 65.4 1.66109 64.1C1.86109 62.6 2.36111 61.1 2.96111 59.7C3.76111 57.9 4.76108 56.3 6.06108 54.9C7.36108 53.4 8.96109 52.2 10.6611 51.3C12.5611 50.2 14.5611 49.6 16.7611 49.2C16.9611 49.2 17.1611 49.3 17.2611 49.1Z" fill="#FEDD50"/>
<path d="M17.2611 49.1C17.1611 49.3 16.9611 49.3 16.7611 49.3C14.6611 49.6 12.5611 50.3 10.6611 51.4C8.96112 52.4 7.36111 53.6 6.06111 55C4.76111 56.4 3.76114 58 2.96114 59.8C2.36114 61.2 1.86112 62.7 1.66112 64.2C1.46112 65.5 1.36114 66.8 1.46114 68.1C1.56114 69.6 1.76112 71 2.26112 72.4C2.56112 73.3 2.86113 74.3 3.36113 75.1C3.16113 75.5 2.86114 75.7 2.46114 76C1.06114 73.6 0.261112 71.1 0.0611124 68.4C-0.238888 64.6 0.561112 61.1 2.56111 57.8C5.46111 53 9.76112 50.2 15.2611 49.3C15.9611 49.1 16.6611 49.1 17.2611 49.1Z" fill="#FEBC00"/>
<path d="M11.9612 83.2C11.7612 83.3 11.6612 83.4 11.5612 83.6C10.8612 83.4 10.2612 83.1 9.56116 82.7C8.76116 82.3 7.96116 81.7 7.16116 81.2C7.06116 81.2 7.06116 81.1 7.06116 81C7.26116 80.8 7.46116 80.6 7.66116 80.4C8.36116 79.7 9.06117 79 9.76117 78.3C9.76117 78.3 9.76118 78.2 9.86118 78.1C9.96118 78.1 10.0612 78.2 10.1612 78.3C11.5612 79.3 13.0612 80 14.7612 80.4C13.9612 81.2 13.1612 82 12.3612 82.8C12.0612 82.9 11.9612 83 11.9612 83.2Z" fill="#FEE993"/>
<path d="M34.6611 60.4C34.4611 60.4 34.4611 60.5 34.3611 60.6C33.4611 61.5 32.6611 62.3 31.7611 63.2C31.6611 63.3 31.5612 63.4 31.4612 63.5C31.2612 62.8 31.0611 62.2 30.7611 61.6C30.3611 60.6 29.7611 59.6 29.1611 58.7C29.7611 58.1 30.3612 57.4 30.9612 56.8C31.2612 56.5 31.5612 56.1 31.9612 55.9C32.4612 56.4 32.8611 57.1 33.2611 57.7C33.8611 58.6 34.3611 59.5 34.6611 60.4Z" fill="#FEE993"/>
<path d="M2.56116 75.9C2.86116 75.6 3.16118 75.4 3.46118 75C3.66118 74.9 3.86118 74.7 3.96118 74.6C4.46118 74.1 4.96116 73.6 5.56116 73.1C5.96116 73.9 6.46118 74.6 6.96118 75.4C7.16118 75.7 7.56116 76 7.66116 76.4C7.56116 76.4 7.56118 76.4 7.46118 76.5C6.76118 77.2 6.16118 77.8 5.46118 78.5C5.26118 78.7 5.06118 78.9 4.86118 79.1C4.16118 78.4 3.56116 77.7 3.06116 76.9C2.96116 76.5 2.76116 76.2 2.56116 75.9Z" fill="#FEE993"/>
<path d="M24.1611 54.4C25.0611 53.5 25.8611 52.7 26.7611 51.8C26.8611 51.7 26.9611 51.6 27.0611 51.5C28.2611 52.1 29.2611 52.9 30.1611 53.8C29.9611 53.8 29.9611 53.9 29.8611 54C28.9611 54.8 28.1611 55.7 27.3611 56.5C26.3611 55.7 25.2611 55 24.1611 54.4Z" fill="#FEE993"/>
<path d="M27.2611 56.5001C28.0611 55.7001 28.9611 54.8001 29.7611 54.0001C29.8611 53.9001 29.9611 53.8 30.0611 53.8C30.7611 54.4 31.3611 55.1001 31.9611 55.9001C31.5611 56.2001 31.2611 56.5 30.9611 56.8C30.3611 57.4 29.7611 58.1001 29.1611 58.7001C28.6611 57.9001 27.9611 57.2001 27.2611 56.5001Z" fill="#FEDD50"/>
<path d="M4.86108 79C5.06108 78.8 5.26109 78.6 5.46109 78.4C5.66109 78.4 5.66108 78.6 5.76108 78.7C6.26108 79.3 6.86109 79.9 7.46109 80.4C7.26109 80.6 7.06108 80.8 6.86108 81C6.26108 80.4 5.56108 79.7 4.86108 79Z" fill="#FEBC00"/>
<path d="M14.6611 80.4C13.0611 79.9 11.4611 79.3 10.0611 78.3C9.9611 78.2 9.86111 78.1 9.76111 78.1C9.76111 78 9.6611 77.9 9.5611 77.9C9.1611 77.5 8.66111 77.2 8.26111 76.8C8.56111 76.3 8.96112 75.9 9.46112 75.6C9.66112 76.8 10.9611 77.2 11.8611 76.6C12.3611 76.9 12.8611 77 13.4611 76.7C13.6611 76.6 13.8611 76.6 14.0611 76.5C14.9611 76.2 15.7611 75.9 16.7611 75.8C17.8611 76.2 18.8611 76.5 20.0611 76.6C20.4611 76.6 20.9611 76.7 21.3611 76.5C21.7611 76.5 22.2611 76.6 22.7611 76.6C24.3611 76.5 25.5611 75.8 26.4611 74.6C27.0611 73.7 26.5611 72.6 25.5611 72.3C25.1611 72.2 24.7611 72.4 24.3611 72.5C23.4611 72 22.8611 72.2 22.3611 72.7C22.0611 73 21.8611 73.3 21.5611 73.5C21.1611 73.4 20.6611 73.3 20.2611 73.2C19.2611 72.9 18.2611 72.7 17.1611 72.8C16.8611 72.8 16.4611 72.9 16.0611 72.9C16.7611 71.3 17.0611 69.6 17.0611 67.9C17.0611 67.7 17.1611 67.7 17.3611 67.7C18.3611 67.7 19.3611 67.7 20.3611 67.7C20.9611 67.7 21.3611 67.5 21.6611 67C22.1611 66.1 21.6611 64.9 20.3611 64.8C20.3611 64.6 20.5611 64.5 20.6611 64.4C21.4611 63.6 22.2611 62.8 23.0611 62C23.3611 62 23.6611 62.1 23.8611 62C24.6611 61.8 24.9611 61.2 24.8611 60.2C25.5611 59.4 26.3611 58.7 27.0611 58H27.1611C27.2611 58.1 27.3611 58.1 27.4611 58.2C28.2611 59.2 28.8611 60.2 29.3611 61.4C29.9611 62.8 30.3611 64.3 30.4611 65.8C30.5611 67 30.5611 68.3 30.2611 69.5C29.8611 71.4 29.1611 73.2 28.0611 74.8C27.1611 76.1 26.0611 77.2 24.7611 78.2C23.1611 79.3 21.4611 80.1 19.5611 80.5C18.9611 80.6 18.3611 80.7 17.6611 80.8C16.7611 80.8 15.7611 80.7 14.8611 80.4C14.7611 80.4 14.6611 80.4 14.6611 80.4Z" fill="#F9A200"/>
<path d="M17.6612 80.8C18.2612 80.7 18.8612 80.6 19.5612 80.5C21.4612 80.1 23.1612 79.3 24.7612 78.2C26.0612 77.3 27.1612 76.1 28.0612 74.8C29.1612 73.2 29.8612 71.4 30.2612 69.5C30.4612 68.3 30.5612 67.1 30.4612 65.8C30.3612 64.3 29.9612 62.8 29.3612 61.4C28.8612 60.2 28.1612 59.2 27.4612 58.2C27.3612 58.1 27.2612 58 27.1612 58C27.1612 57.9 27.0612 57.8 27.0612 57.8C26.4612 57.2 25.8612 56.5 25.0612 56C23.3612 54.7 21.3612 53.8 19.2612 53.4C18.6612 53.3 18.1612 53.2 17.5612 53.1C19.8612 53 21.9612 53.4 24.0612 54.4C24.1612 54.4 24.1612 54.4 24.2612 54.5C25.3612 55.1 26.4612 55.8 27.3612 56.6C28.0612 57.3 28.7612 58 29.3612 58.8C29.9612 59.7 30.5612 60.6 30.9612 61.7C31.2612 62.3 31.4612 63 31.6612 63.6C31.9612 65 32.1612 66.4 32.0612 67.8C31.8612 70.7 30.8612 73.3 29.1612 75.5C27.0612 78.2 24.2612 79.9 20.8612 80.6C19.6612 80.8 18.6612 80.9 17.6612 80.8Z" fill="#F58E01"/>
<path d="M17.4611 53C18.0611 53.1 18.5611 53.2 19.1611 53.3C21.2611 53.7 23.2611 54.6 24.9611 55.9C25.6611 56.4 26.2611 57.1 26.9611 57.7C27.0611 57.8 27.0611 57.8 27.0611 57.9H26.9611C26.2611 58.6 25.4611 59.3 24.7611 60.1C24.1611 58.9 23.2611 58 22.2611 57.1C21.4611 56.4 20.5611 55.9 19.5611 55.6C18.6611 55.4 17.8611 55.3 16.9611 55.5C16.5611 55.4 16.0611 55.4 15.6611 55.4C13.7611 55.6 12.2611 56.6 11.3611 58.2C10.6611 59.4 10.4611 60.7 10.5611 62C10.6611 62.9 11.1611 63.7 11.4611 64.6C11.3611 64.6 11.3611 64.6 11.2611 64.6C10.7611 64.6 10.2611 64.6 9.76113 64.6C8.86113 64.6 8.26113 65.2 8.26113 66.1C8.26113 67 8.86113 67.6 9.76113 67.6C10.2611 67.6 10.7611 67.6 11.2611 67.6C11.5611 67.6 11.8611 67.6 12.1611 67.6C12.1611 68.3 12.1611 68.9 12.0611 69.6C11.7611 71.3 11.0611 72.8 9.96115 74.2C9.66115 74.6 9.46115 75 9.46115 75.5C8.96115 75.8 8.56113 76.2 8.26113 76.7C8.06113 76.5 7.86113 76.4 7.66113 76.2C7.46113 75.8 7.16115 75.6 6.96115 75.2C6.46115 74.5 5.96112 73.7 5.56112 72.9C5.16112 71.9 4.76112 71 4.56112 69.9C4.26112 68.4 4.16113 67 4.26113 65.4C4.46113 63 5.26113 60.8 6.66113 58.8C8.86113 55.7 11.7611 53.8 15.5611 53C16.1611 53.1 16.7611 53 17.4611 53Z" fill="#FEBC00"/>
<path d="M7.66116 76.3C7.86116 76.5 8.06117 76.6 8.26117 76.8C8.66117 77.2 9.06116 77.6001 9.56116 77.9001C9.66116 78.0001 9.76117 78.0001 9.76117 78.1001C9.76117 78.2001 9.76116 78.2 9.66116 78.3C8.96116 79 8.26116 79.7001 7.56116 80.4001C6.96116 79.9001 6.36118 79.3001 5.86118 78.7001C5.76118 78.6001 5.66116 78.4001 5.56116 78.4001C6.26116 77.7001 6.86116 77.1001 7.56116 76.4001C7.56116 76.3001 7.66116 76.3 7.66116 76.3Z" fill="#FEDD50"/>
<path d="M12.0611 67.8001C11.7611 67.8001 11.4611 67.8001 11.1611 67.8001C11.0611 67.8001 11.0611 67.7001 10.9611 67.7001C10.0611 67.4001 9.66112 66.3001 10.2611 65.5001C10.4611 65.2001 10.8611 65.0001 11.2611 64.9001C11.3611 64.9001 11.3611 64.9001 11.4611 64.9001C12.0611 64.9001 12.6611 64.9001 13.2611 64.9001C13.1611 64.6001 13.0611 64.3001 12.8611 64.1001C11.5611 61.5001 12.3611 58.4001 14.7611 56.7001C15.3611 56.2001 16.1611 56.0001 16.8611 55.8001C17.7611 55.7001 18.6611 55.7001 19.4611 55.9001C20.4611 56.2001 21.3611 56.7001 22.1611 57.4001C23.1611 58.2001 24.0611 59.2001 24.6611 60.4001C24.7611 61.4001 24.3611 62.0001 23.6611 62.2001C23.3611 62.3001 23.0611 62.2001 22.8611 62.2001C22.6611 62.1001 22.5611 62.0001 22.3611 61.9001C22.1611 61.7001 22.0611 61.5001 21.8611 61.2001C21.2611 60.4001 20.5611 59.7001 19.7611 59.1001C18.9611 58.6001 18.0611 58.3001 17.1611 58.7001C15.6611 59.1001 14.7611 61.1001 15.4611 62.6001C15.7611 63.3001 16.0611 63.9001 16.3611 64.7001C16.3611 64.9001 16.4611 64.9001 16.6611 64.9001C17.8611 64.9001 19.0611 64.9001 20.3611 64.9001C21.6611 65.0001 22.1611 66.2001 21.6611 67.1001C21.3611 67.6001 20.9611 67.8001 20.3611 67.8001C19.3611 67.8001 18.3611 67.8001 17.3611 67.8001C17.1611 67.8001 17.0611 67.8001 17.0611 68.0001C17.0611 69.7001 16.7611 71.4001 16.0611 73.0001C16.4611 73.0001 16.7611 72.9001 17.1611 72.9001C18.2611 72.8001 19.2611 73.0001 20.2611 73.3001C20.6611 73.4001 21.0611 73.6001 21.5611 73.6001C22.5611 73.9001 23.5611 73.8001 24.1611 72.8001C24.2611 72.7001 24.2611 72.7001 24.3611 72.6001C24.7611 72.4001 25.0611 72.2001 25.5611 72.4001C26.5611 72.7001 27.0611 73.8001 26.4611 74.7001C25.5611 76.0001 24.3611 76.7001 22.7611 76.7001C22.2611 76.7001 21.8611 76.7001 21.3611 76.6001C20.6611 76.5001 19.9611 76.2001 19.2611 76.0001C18.4611 75.8001 17.6611 75.6001 16.8611 75.8001C15.9611 75.9001 15.0611 76.2001 14.1611 76.5001C13.9611 76.6001 13.7611 76.6001 13.5611 76.7001C12.9611 76.9001 12.4611 76.9001 11.9611 76.6001C11.2611 75.9001 11.2611 75.2001 11.8611 74.4001C13.2611 72.5001 14.1611 70.5001 14.1611 68.1001C14.1611 67.9001 14.1611 67.7001 13.8611 67.8001C13.0611 67.8001 12.5611 67.8001 12.0611 67.8001Z" fill="#FEE993"/>
<path d="M22.3612 61.7999C22.5612 61.8999 22.6612 61.9999 22.8612 62.0999C22.0612 62.8999 21.2612 63.6999 20.4612 64.4999C20.3612 64.5999 20.2612 64.6999 20.1612 64.8999C18.9612 64.8999 17.7612 64.8999 16.4612 64.8999C16.2612 64.8999 16.2612 64.8 16.1612 64.7C15.9612 64 15.6612 63.2999 15.2612 62.5999C14.5612 61.0999 15.4612 59.1 16.9612 58.7C17.1612 58.9 17.4612 58.8999 17.6612 59.0999C18.6612 59.6999 19.3612 60.4999 20.0612 61.4999C20.7612 62.1999 21.5612 62.2999 22.3612 61.7999Z" fill="#FEBC00"/>
<path d="M12.0611 67.8C12.5611 67.8 13.0611 67.8 13.5611 67.8C13.8611 67.8 13.8611 67.9001 13.8611 68.1001C13.8611 70.5001 13.0611 72.6001 11.5611 74.4001C10.9611 75.2001 11.0611 75.9001 11.6611 76.6001C10.7611 77.2001 9.46111 76.8001 9.26111 75.6001C9.26111 75.1001 9.46111 74.7 9.76111 74.3C10.8611 72.9 11.5611 71.4001 11.8611 69.7001C12.0611 69.1001 12.0611 68.4 12.0611 67.8Z" fill="#F58E01"/>
<path d="M24.1611 72.7C24.0611 72.8 24.0611 72.8 23.9611 72.9C23.2611 73.9 22.3611 74 21.3611 73.7C21.6611 73.5 21.9611 73.2 22.1611 72.9C22.6611 72.3 23.2611 72.2 24.1611 72.7Z" fill="#F58E01"/>
<path d="M16.6611 75.9C17.4611 75.7 18.2611 75.9 19.0611 76.1C19.7611 76.3 20.4611 76.5 21.1611 76.7C20.7611 76.8 20.2611 76.8 19.8611 76.8C18.7611 76.6 17.6611 76.2 16.6611 75.9Z" fill="#F58E01"/>
<path d="M16.8612 55.7C16.1612 55.9 15.3612 56.2 14.7612 56.6C12.3612 58.3 11.5612 61.3 12.8612 64C12.9612 64.3 13.1612 64.5 13.2612 64.8C12.6612 64.8 12.0612 64.8 11.4612 64.8C11.0612 64 10.6611 63.2 10.5611 62.2C10.3611 60.8 10.5612 59.5 11.3612 58.4C12.3612 56.8 13.8612 55.8 15.6612 55.6C15.9612 55.6 16.4612 55.6 16.8612 55.7Z" fill="#F58E01"/>
<path d="M11.1612 64.7999C10.7612 64.8999 10.4612 65.0999 10.1612 65.3999C9.66116 66.1999 9.96118 67.2999 10.8612 67.5999C10.9612 67.5999 10.9612 67.7 11.0612 67.7C10.5612 67.7 10.0612 67.7 9.56116 67.7C8.66116 67.7 8.06116 67.1 8.06116 66.2C8.06116 65.3 8.66116 64.7 9.56116 64.7C10.1612 64.8 10.6612 64.7999 11.1612 64.7999Z" fill="#F58E01"/>
<path d="M22.3612 61.7999C21.5612 62.2999 20.7612 62.1999 20.1612 61.3999C19.5612 60.4999 18.7612 59.5999 17.7612 58.9999C17.5612 58.8999 17.2612 58.7999 17.0612 58.5999C17.9612 58.2999 18.8612 58.4999 19.6612 58.9999C20.5612 59.4999 21.1612 60.2999 21.7612 61.0999C22.0612 61.3999 22.1612 61.5999 22.3612 61.7999Z" fill="#F58E01"/>
</svg>
